<?xml version="1.0" standalone="no"?>
<!DOCTYPE svg PUBLIC "-//W3C//DTD SVG 20010904//EN"
 "http://www.w3.org/TR/2001/REC-SVG-20010904/DTD/svg10.dtd">
<svg version="1.0" xmlns="http://www.w3.org/2000/svg"
 width="128.000000pt" height="128.000000pt" viewBox="0 0 128.000000 128.000000"
 preserveAspectRatio="xMidYMid meet">
<g transform="translate(0.000000,128.000000) scale(0.100000,-0.100000)"
fill="#000000" stroke="none">
<path d="M0 640 l0 640 640 0 640 0 0 640 0 640 -640 0 -640 0 0 -640z m768
505 c71 -15 149 -38 172 -50 24 -14 24 -14 -12 -8 -55 8 -46 -9 20 -39 31 -15
73 -41 92 -58 l35 -31 -32 16 c-24 11 -34 12 -39 3 -4 -7 0 -16 11 -22 35 -20
106 -90 121 -117 19 -37 18 -54 -2 -34 -25 25 -43 2 -19 -25 37 -41 -3 -233
-81 -381 -70 -132 -210 -274 -338 -340 l-61 -32 -74 44 c-150 89 -295 256
-355 409 -44 113 -57 180 -63 330 l-6 145 159 68 c88 37 162 67 166 67 4 0 -1
-18 -10 -39 -16 -37 -24 -42 -129 -86 l-113 -47 0 -39 c0 -35 3 -39 25 -39 23
0 25 -4 25 -44 0 -62 25 -188 49 -240 25 -59 96 -135 146 -157 56 -26 152 -25
210 2 80 38 125 110 125 201 0 126 -91 170 -222 108 -84 -40 -119 -38 -176 7
l-23 19 50 64 c49 63 50 66 49 130 -1 66 9 98 45 137 20 22 20 46 1 112 l-7
24 46 -28 c39 -22 47 -24 47 -11 0 9 7 33 15 52 l15 36 56 -51 c30 -28 68 -53
82 -56z"/>
<path d="M705 841 c-22 -10 -55 -30 -73 -44 l-34 -25 54 -11 c195 -38 248 -46
248 -40 0 4 -12 17 -27 29 l-28 21 25 -5 c14 -3 30 -6 37 -6 6 0 26 -12 43
-26 17 -15 33 -24 36 -22 2 3 -10 27 -28 53 -59 88 -162 118 -253 76z"/>
</g>
</svg>
