<?xml version="1.0" standalone="no"?>
<!DOCTYPE svg PUBLIC "-//W3C//DTD SVG 1.0//EN" "http://www.w3.org/TR/2001/REC-SVG-20010904/DTD/svg10.dtd">
<svg xmlns="http://www.w3.org/2000/svg" xmlns:xlink="http://www.w3.org/1999/xlink" id="body_1" width="1696" height="1696">

<g transform="matrix(1.3333334 0 0 1.3333334 0 0)">
	<g transform="matrix(0.1 0 -0 -0.1 0 1272)">
        <path d="M4995 10754C 4999 10744 5008 10720 5015 10702C 5021 10684 5028 10672 5031 10674C 5033 10676 5056 10642 5081 10599C 5107 10555 5124 10518 5120 10515C 5113 10511 5010 10650 5010 10663C 5010 10665 5000 10689 4989 10715C 4968 10763 4968 10763 4954 10739C 4936 10706 4912 10630 4893 10540C 4873 10446 4862 10030 4879 10030C 4885 10030 4890 10014 4890 9993C 4890 9973 4897 9919 4906 9872C 4914 9826 4919 9786 4917 9783C 4908 9775 4597 9801 4520 9816C 4407 9839 4278 9885 4171 9940C 4119 9967 4074 9987 4071 9984C 4061 9975 4041 9822 4041 9755C 4040 9677 4061 9542 4086 9465C 4107 9401 4182 9251 4222 9191C 4239 9166 4285 9105 4323 9057L4323 9057L4393 8968L4313 8887C 4200 8771 4138 8696 4012 8524C 3746 8160 3599 7864 3510 7510C 3461 7315 3447 7196 3447 6970C 3448 6734 3464 6611 3529 6333C 3552 6240 3570 6145 3570 6124C 3569 5986 3155 5314 2513 4414C 2412 4271 2408 4259 2437 4174C 2475 4061 2528 4008 2636 3974C 2680 3961 2723 3950 2733 3950C 2743 3950 2748 3946 2745 3940C 2742 3935 2749 3929 2762 3929C 2778 3928 2780 3926 2768 3923C 2708 3907 2884 3793 3169 3665C 3333 3590 3437 3552 3540 3529C 3652 3504 3860 3493 3948 3508C 3985 3515 4047 3524 4085 3530C 4315 3565 4522 3636 5054 3862C 5639 4109 5875 4176 6195 4187C 6447 4195 6636 4160 6830 4069C 7059 3962 7205 3852 7364 3668C 7470 3546 7674 3248 7742 3115C 7827 2949 7913 2712 7923 2614C 7929 2558 7922 2551 7863 2550C 7851 2550 7839 2547 7836 2542C 7834 2538 7827 2465 7820 2380C 7803 2145 7760 1946 7689 1780C 7672 1739 7649 1683 7639 1657C 7586 1514 7354 1235 7175 1095C 6793 797 6343 637 5695 568C 5529 550 4864 551 4705 568C 4065 640 3557 780 2937 1054C 2866 1086 2806 1109 2804 1107C 2798 1101 3009 965 3170 869C 3338 771 3681 598 3861 522C 4505 251 5107 101 5815 34C 6066 10 6654 10 6905 34C 7726 112 8429 307 9145 655C 10043 1091 10839 1751 11449 2565C 11926 3200 12285 3941 12491 4713L12491 4713L12542 4900L12515 5013C 12488 5131 12429 5287 12350 5457C 12047 6103 11421 6713 10685 7082C 10531 7159 10534 7157 10543 7166C 10553 7176 10731 7200 10797 7200C 10999 7200 11312 7127 11529 7029C 11564 7013 11595 7002 11598 7004C 11620 7027 11153 7501 10950 7663C 10443 8068 9770 8410 9118 8595C 9064 8610 9020 8626 9020 8631C 9020 8644 9138 8677 9225 8689C 9402 8714 9874 8694 10135 8650C 10230 8634 10230 8637 10135 8699C 9584 9058 8770 9350 7860 9514C 7688 9545 7315 9600 7275 9600C 7264 9600 7260 9611 7260 9638C 7260 9726 7169 9841 7025 9935C 6837 10058 6612 10150 6005 10352C 5392 10556 5142 10657 5021 10748C 4991 10770 4988 10771 4995 10754zM5140 10494C 5140 10486 5135 10482 5130 10485C 5124 10489 5122 10496 5125 10501C 5134 10515 5140 10512 5140 10494zM5493 7291C 5371 7238 5337 7219 5243 7153C 5183 7111 5179 7105 5094 6943C 4996 6755 4973 6727 4855 6660C 4711 6579 4307 6420 4243 6420C 4219 6420 4218 6421 4224 6478C 4227 6509 4232 6576 4235 6625C 4248 6815 4284 7021 4316 7081C 4354 7155 4679 7264 5013 7314C 5104 7328 5143 7322 5110 7299C 5094 7288 5106 7289 5355 7320C 5432 7330 5520 7338 5550 7339L5550 7339L5605 7340L5493 7291zM6045 5360C 6042 5355 6033 5350 6027 5350C 6020 5350 6021 5354 6030 5360C 6049 5372 6053 5372 6045 5360zM7200 4006C 7200 4003 7196 3998 7190 3995C 7185 3992 7180 3994 7180 3999C 7180 4005 7185 4010 7190 4010C 7196 4010 7200 4008 7200 4006zM3917 3928C 3914 3920 3911 3923 3911 3934C 3910 3945 3913 3951 3916 3947C 3919 3944 3920 3935 3917 3928zM9480 3929C 9480 3924 9476 3920 9470 3920C 9465 3920 9460 3927 9460 3936C 9460 3944 9465 3948 9470 3945C 9476 3942 9480 3935 9480 3929zM3057 3924C 3054 3921 3045 3920 3038 3923C 3030 3926 3033 3929 3044 3929C 3055 3930 3061 3927 3057 3924zM9515 3880C 9518 3874 9514 3873 9506 3876C 9488 3883 9485 3890 9499 3890C 9505 3890 9512 3886 9515 3880z" stroke="none" fill="#000000" fill-rule="nonzero" />
	</g>
</g>
</svg>